PathFileType	4	(X/Y/Z)	walk-thru1-1-TP.trc
DataRate	CameraRate	NumFrames	NumMarkers	Units	OrigDataRate	OrigDataStartFrame	OrigNumFrames
120.00	120.00	       4	60	mm	120.00	114	       452
Frame#	Time	Top.Head			Front.Head			Rear.Head			Jaw			C7			R.Clavicle			L.Clavicle			R.Shoulder			L.Shoulder			R.Scapula			L.Scapula			R.Scap.Inf			R.Biceps.Lateral			R.Elbow			R.Elbow.Medial			R.Forearm			R.Ulna			R.Radius			R.Wrist			R.Thumb.M1			R.Thumb.M2			R.Thumb.M3			R.Finger3.M1			R.Finger3.M2			R.Finger3.M3			L.Biceps.Lateral			L.Elbow			L.Elbow.Medial			L.Forearm			L.Ulna			L.Radius			L.Wrist			L.Thumb.M1			L.Thumb.M2			L.Thumb.M3			L.Finger3.M1			L.Finger3.M2			L.Finger3.M3			V.Sacral			R.ASIS			L.ASIS			R.Thigh			R.Thigh.Front			R.Knee			R.Knee.Medial			R.Shank			R.Ankle			R.Ankle.Medial			R.Heel			R.Toe			R.MedFoot			L.Thigh			L.Knee			L.Knee.Medial			L.Shank			L.Ankle			L.Ankle.Medial			L.Heel			L.Toe			L.MedFoot			V_mid_ASIS			V_R_Knee_JC			V_L_Knee_JC			V_R_Elbow_JC			V_L_Elbow_JC			V_R_Ankle_JC			V_L_Ankle_JC			V_R_Wrist_JC			V_L_Wrist_JC			V_R_ScaTrpz_1stMC_JC			V_R_1stMC_1stPP_JC			V_R_1stPP_1stDP_JC			V_R_LunCap_3rdMC_JC			V_R_3rdMC_3rdPP_JC			V_R_3rdPP_3rdMP_JC			V_R_3rdMP_3rdDP_JC			V_L_ScaTrpz_1stMC_JC			V_L_1stMC_1stPP_JC			V_L_1stPP_1stDP_JC			V_L_LunCap_3rdMC_JC			V_L_3rdMC_3rdPP_JC			V_L_3rdPP_3rdMP_JC			V_L_3rdMP_3rdPP_JC			V_ROOT_JC			V_R_Hip_JC			V_L_Hip_JC			V_R_GlenHum_JC			V_L_GlenHum_JC			V_ForeHead_Ctr			V_Vertex			V_Sagit_Lambdoid_Suture			V_R_FrontoTemp			V_L_FrontoTemporal			V_R_ParietalOccip			V_L_ParietalOcciptal			V_R_Temporal			V_L_Temporal			V_mid_FrontRearHead			V_mid_RLGlenHumCtrs			V_C7_vert			V_C1_vert			V_Mid_Hip			
		X1	Y1	Z1	X2	Y2	Z2	X3	Y3	Z3	X4	Y4	Z4	X5	Y5	Z5	X6	Y6	Z6	X7	Y7	Z7	X8	Y8	Z8	X9	Y9	Z9	X10	Y10	Z10	X11	Y11	Z11	X12	Y12	Z12	X13	Y13	Z13	X14	Y14	Z14	X15	Y15	Z15	X16	Y16	Z16	X17	Y17	Z17	X18	Y18	Z18	X19	Y19	Z19	X20	Y20	Z20	X21	Y21	Z21	X22	Y22	Z22	X23	Y23	Z23	X24	Y24	Z24	X25	Y25	Z25	X26	Y26	Z26	X27	Y27	Z27	X28	Y28	Z28	X29	Y29	Z29	X30	Y30	Z30	X31	Y31	Z31	X32	Y32	Z32	X33	Y33	Z33	X34	Y34	Z34	X35	Y35	Z35	X36	Y36	Z36	X37	Y37	Z37	X38	Y38	Z38	X39	Y39	Z39	X40	Y40	Z40	X41	Y41	Z41	X42	Y42	Z42	X43	Y43	Z43	X44	Y44	Z44	X45	Y45	Z45	X46	Y46	Z46	X47	Y47	Z47	X48	Y48	Z48	X49	Y49	Z49	X50	Y50	Z50	X51	Y51	Z51	X52	Y52	Z52	X53	Y53	Z53	X54	Y54	Z54	X55	Y55	Z55	X56	Y56	Z56	X57	Y57	Z57	X58	Y58	Z58	X59	Y59	Z59	X60	Y60	Z60	

114	0.942	823.50781	21.87230	1566.84839	717.86578	23.77430	1472.40845	931.44574	24.62429	1480.98962	741.15887	36.24094	1329.89795	940.74738	39.50713	1374.46362	862.52844	150.70900	1282.17200	845.06415	-62.44020	1291.28369	912.55011	226.73921	1280.34888	893.43127	-157.22345	1292.55884	991.62921	124.68134	1297.60498	990.39886	-56.97273	1300.99841	1039.21729	106.74270	1218.78613	895.87445	280.84830	1138.14746	931.46338	298.65933	976.83618	958.63165	229.18443	961.28149	855.55902	296.35468	902.83411	885.20349	321.44559	817.65881	816.08984	278.21875	771.10895	821.93054	318.24368	736.16644	794.17474	280.00000	717.93805	783.37329	261.59293	682.71631	781.68390	250.69861	641.33551	806.84467	329.34119	659.43207	809.31897	306.26553	610.02765	823.10254	284.76553	577.79242	907.10919	-221.36674	1149.38940	952.16077	-233.12943	1003.85419	974.91675	-156.49747	995.29816	871.36707	-217.23148	935.10645	888.84570	-255.98175	843.80267	842.06830	-198.73817	797.39832	833.58832	-247.11047	771.58447	814.76971	-205.18576	758.10785	807.59814	-182.42220	720.07599	806.59564	-174.16563	669.58911	813.09363	-249.25330	684.43140	815.62250	-236.26433	645.08636	830.73102	-207.52426	609.96393	1059.09619	34.91346	908.14258	861.60846	184.75999	968.31665	878.90332	-135.33043	960.16895	847.27606	203.26155	579.72235	783.04468	127.93037	494.90472	830.30444	162.23105	442.71893	825.12604	49.08924	440.93600	843.27295	104.26898	269.83890	932.34937	112.08587	64.11386	915.36572	22.10771	83.24426	992.34528	56.41641	41.44376	790.51703	87.24406	37.38706	846.91089	44.99234	62.38328	838.81299	-185.60330	592.22894	801.74780	-172.64102	449.22583	775.50012	-50.85851	428.85187	904.67065	-102.19548	279.47839	1074.88196	-111.72907	167.33934	1047.87219	-25.34911	175.44377	1132.41309	-61.49916	184.09879	983.35944	-73.12331	60.14474	1004.52148	-42.94858	106.88445																																																																																																																															
115	0.950	818.22821	22.36863	1566.73181	711.97626	24.25146	1472.01111	925.21075	25.69295	1480.76563	734.85016	36.58742	1329.40466	935.04358	41.00522	1374.64490	855.98883	151.89278	1282.28345	839.40436	-62.22021	1291.21704	907.02057	227.43593	1280.87231	888.08557	-156.39882	1292.12488	985.63654	126.10019	1297.61206	985.03693	-56.83698	1301.91943	1033.64429	108.09233	1218.87231	887.65350	282.43527	1138.28906	922.42572	298.61749	977.03833	950.13165	230.36298	961.17346	846.36975	296.36969	903.63715	874.37811	319.84500	818.34442	805.36713	280.19977	772.35309	810.89398	319.85904	737.86096	781.10773	281.41113	719.70795	772.77991	262.57800	682.60095	768.28180	253.17570	641.83002	794.41205	331.49142	660.06012	796.59875	308.96164	612.44769	809.88971	287.82013	579.07617	902.12805	-219.26793	1149.80603	947.86700	-232.68170	1004.23956	971.90649	-154.97879	995.17126	866.36407	-215.99527	935.31354	884.72699	-255.96175	844.00354	836.80798	-198.73825	797.34167	830.29425	-247.55899	771.58636	810.95825	-203.64673	757.79272	803.29913	-183.50325	719.59851	801.19067	-174.75020	669.55212	810.48242	-248.33134	684.04138	811.92224	-236.41818	644.89490	824.63782	-208.28448	609.44305	1053.72327	34.42477	909.14050	857.17889	184.82520	969.49683	873.39984	-133.96219	960.38867	844.25659	203.51025	578.93262	780.76678	127.56638	493.47937	829.16296	161.68251	443.01599	824.30536	48.52323	440.98404	842.77155	104.46167	269.55890	932.21729	112.35525	64.05809	915.24280	22.16957	83.23519	992.25818	56.11324	41.40805	790.49780	87.41088	37.35783	846.84711	44.81810	62.81038	823.54883	-184.93507	593.35571	789.61499	-170.95386	450.65424	764.57159	-49.33070	431.63910	890.69568	-100.69437	279.84515	1058.57642	-111.38046	164.68213	1031.90137	-24.70460	173.36760	1116.12793	-60.38345	179.78554	963.12366	-72.97736	59.68767	985.90234	-42.39450	106.46220																																																																																																																															
116	0.958	811.09076	22.76593	1567.62878	706.28839	24.78040	1472.39417	919.53015	25.87853	1480.94031	728.63049	37.07207	1330.09766	929.26471	41.92137	1376.55945	849.69385	152.00702	1282.53528	834.49188	-62.30114	1291.05933	899.75946	228.81801	1280.53967	883.18494	-155.91850	1291.85974	979.87195	126.42606	1297.72888	979.51227	-55.65057	1301.63318	1027.88586	108.73083	1219.06384	881.52234	281.86212	1138.34033	914.07220	301.08185	977.44568	942.69946	232.27051	960.79608	835.74030	297.93625	905.00067	863.24719	322.14420	818.40503	794.97260	280.30371	772.66248	798.92108	321.08890	738.63678	770.53845	282.70267	721.55200	758.85455	265.40982	685.44415	755.30157	253.57272	644.10931	783.00366	332.07040	662.00739	783.43701	310.54385	613.54803	796.50006	290.29892	580.45819	896.79504	-219.24380	1149.81714	943.32513	-231.77397	1004.30505	965.94232	-154.82324	995.54950	863.13226	-215.40874	935.29004	881.85583	-254.91504	844.11188	834.28632	-197.75934	797.12091	827.80731	-247.43651	770.94598	807.70190	-204.74179	757.96204	799.31879	-183.80560	720.21655	796.18530	-175.14046	669.68140	807.30927	-248.19905	683.63739	810.40753	-236.37428	644.50488	825.05200	-207.53279	609.82715	1048.85193	34.10966	908.94116	852.30841	186.18443	969.33331	867.28546	-134.19371	960.46277	842.11182	204.47923	579.03302	777.85529	126.96215	492.47278	828.27856	161.83630	442.49551	822.34729	48.83141	439.44067	841.60852	104.57401	269.47940	932.31091	112.18350	64.37177	915.19800	22.28120	83.29471	991.22583	55.66120	41.22945	790.70624	87.43911	37.46685	846.38416	44.43843	62.56789	814.46936	-181.89023	593.67450	776.54346	-168.86226	452.05551	752.88025	-47.67173	433.15427	874.94147	-99.46967	279.39090	1041.18958	-110.09527	161.60110	1013.97821	-23.65287	170.91663	1100.66406	-59.58949	174.93744	943.66821	-71.27729	59.67012	969.09778	-40.87014	105.42412																																																																																																																															
117	0.967	805.25861	24.00065	1567.20911	699.55151	25.25712	1471.73267	912.61353	26.88373	1480.36304	723.41003	38.39582	1329.21753	924.19189	43.09602	1376.08716	844.88269	153.04492	1281.89282	828.63965	-61.05003	1291.32861	894.34058	228.75670	1280.50269	877.25958	-155.38556	1292.04980	973.36700	127.25418	1298.20667	973.45929	-53.79581	1302.26453	1021.55499	109.19944	1219.09265	874.32355	283.24966	1139.11926	904.84253	301.98499	977.16406	933.78241	233.55960	960.61041	826.88306	297.27930	904.95001	851.51074	323.28687	819.56140	783.30139	281.71298	774.37720	787.45569	321.54105	740.54724	759.06049	282.81253	722.25513	748.06323	265.01151	685.96521	743.00043	255.12715	645.29547	769.51495	333.91824	664.42456	771.08533	311.55383	615.06635	782.34467	291.81650	580.96368	891.31805	-218.90524	1149.54077	939.35577	-230.88831	1005.05481	962.00800	-154.20929	996.32391	858.49683	-215.30060	935.03003	878.51422	-254.39462	844.29962	831.64459	-196.96204	797.10406	824.16864	-247.92860	770.95587	804.69055	-204.33382	757.30670	795.09644	-183.25854	719.91315	791.02313	-176.84171	669.24677	804.90564	-248.78288	682.99878	807.01788	-235.63333	644.35785	820.79236	-206.30174	609.76294	1043.54236	34.59241	909.42847	846.71838	187.06799	969.83502	862.16797	-132.75905	960.80927	840.37177	204.73570	578.94830	776.63159	127.64721	491.60132	826.40924	161.74864	442.32831	820.49615	49.53084	439.30408	840.83698	104.66979	269.31119	932.40350	112.32499	64.17083	915.05872	22.30155	83.48273	992.18115	57.19193	42.36430	790.55359	87.39663	37.35719	847.01166	45.04650	62.27180	806.43671	-179.07965	593.68988	765.37360	-166.90834	454.31512	741.58472	-45.02936	434.16019	860.73834	-98.26855	278.98071	1024.22876	-108.89924	157.38501	996.64087	-21.71966	167.02377	1083.38416	-57.92020	169.47490	923.50171	-71.05033	59.28086	948.99384	-39.85035	103.84392																																																																																																																															
